<svg xmlns="http://www.w3.org/2000/svg" width="21.102" height="15.621" viewBox="0 0 21.102 15.621">
  <path id="add-to-list" d="M20.469,12.909H16.882V8.483c0-.781-.422-.781-1.055-.781s-1.055,0-1.055.781v4.426H11.184c-.633,0-.633.521-.633,1.3s0,1.3.633,1.3h3.587v4.426c0,.781.422.781,1.055.781s1.055,0,1.055-.781V15.512h3.587c.633,0,.633-.521.633-1.3S21.1,12.909,20.469,12.909Zm-12.661,0H.633C0,12.909,0,13.429,0,14.21s0,1.3.633,1.3H7.808c.633,0,.633-.521.633-1.3S8.441,12.909,7.808,12.909Zm0,6.509H.633c-.633,0-.633.521-.633,1.3s0,1.3.633,1.3H7.808c.633,0,.633-.521.633-1.3S8.441,19.417,7.808,19.417Zm0-13.017H.633C0,6.4,0,6.921,0,7.7S0,9,.633,9H7.808c.633,0,.633-.521.633-1.3S8.441,6.4,7.808,6.4Z" transform="translate(0 -6.4)" fill="#fff"/>
</svg>
