<svg id="avatar::_pristine" data-name="avatar:: pristine" xmlns="http://www.w3.org/2000/svg" width="26" height="26" viewBox="0 0 26 26">
  <circle id="Ellipse_1" data-name="Ellipse 1" cx="13" cy="13" r="13" fill="#1c1c1c" opacity="0.996"/>
  <path id="coffee" d="M11.677,6.324V5.351a.486.486,0,0,0-.487-.487H.487A.486.486,0,0,0,0,5.351v6.812a.478.478,0,0,0,.07.236,3.892,3.892,0,0,0,3.823,3.17H7.785a3.873,3.873,0,0,0,3.027-1.46h.866a3.893,3.893,0,0,0,0-7.786Zm0,5.839V8.27a1.946,1.946,0,0,1,0,3.893ZM2.529,4.138c-.072.131-.064.24.074.24a.443.443,0,0,0,.373-.239C3.459,2.879.922,1.855,2.455.3c.157-.161.221-.3.082-.3a1.033,1.033,0,0,0-.577.288C.482,1.806,3.216,2.872,2.529,4.138Zm1.838.006a.193.193,0,0,0,.2.234.288.288,0,0,0,.281-.233c.108-.9-.614-1.73-.181-2.51.007-.141-.159-.281-.374-.3s-.406.087-.413.227C3.824,2.579,4.494,3.229,4.367,4.143Zm2.154.234a.286.286,0,0,0,.269-.229c.247-1.166,2.261-1.525.742-3.607A1.084,1.084,0,0,0,6.941.127c-.14,0-.152.19-.059.4,1.512,1.427.06,2.45-.582,3.619A.208.208,0,0,0,6.521,4.377Zm1.959,0a.3.3,0,0,0,.267-.237C9.117,2.9,13.291,2.1,9.781.4A3.582,3.582,0,0,0,8.837.088c-.106.007.143.187.455.383,2.869,1.88.2,1.313-1.031,3.673-.04.124.083.234.219.234Z" transform="translate(6.215 4.215)" fill="#ff4b3e" opacity="0.703"/>
</svg>
