<svg xmlns="http://www.w3.org/2000/svg" width="24.002" height="32" viewBox="0 0 24.002 32">
  <path id="location" d="M16,17.746a6,6,0,1,0-6-6A6.007,6.007,0,0,0,16,17.746Zm0-11a5,5,0,1,1-5,5,5,5,0,0,1,5-5ZM16,0A11.97,11.97,0,0,0,4,12c0,7,6,14.161,10.376,19.194A2.444,2.444,0,0,0,15.962,32h.077a2.447,2.447,0,0,0,1.586-.805C22,26.162,28,19,28,12A11.971,11.971,0,0,0,16,0Zm.117,29.883a1.214,1.214,0,0,1-.135.1,1,1,0,0,0-.129-.133C12.188,25.631,6,18.514,6,12a10,10,0,1,1,20,0c0,6.512-6.188,13.629-9.885,17.881Z" transform="translate(-4)" fill="#12aaeb"/>
</svg>
