<svg xmlns="http://www.w3.org/2000/svg" width="32" height="32" viewBox="0 0 32 32">
  <path id="shop" d="M31.4,11.2l-3-4a2.967,2.967,0,0,0-.4-.423V2a2,2,0,0,0-2-2H6A2,2,0,0,0,4,2V6.78a2.945,2.945,0,0,0-.4.42l-3,4A3.013,3.013,0,0,0,0,13v1a3,3,0,0,0,3,3H3V30a2,2,0,0,0,2,2H27a2,2,0,0,0,2-2V17a3,3,0,0,0,3-3V13A3.014,3.014,0,0,0,31.4,11.2ZM26,2V6H6V2ZM10.193,15H6l4-7h2.189Zm3.041-7H15.5v7H11.234ZM16.5,8h2.266l2,7H16.5Zm3.305,0h2.189l4,7H21.805ZM2,14V13a1,1,0,0,1,.2-.6l3-4A1,1,0,0,1,6,8H8.852l-4,7H3a1,1,0,0,1-1-1ZM20,30H12.5V20H20Zm7,0H21V20a1,1,0,0,0-1-1H12.5a1,1,0,0,0-1,1V30H5V17H27Zm3-16a1,1,0,0,1-1,1H27.146l-4-7H26a1,1,0,0,1,.8.4l3,4a.992.992,0,0,1,.2.6Z" fill="#12aaeb"/>
</svg>
