<svg xmlns="http://www.w3.org/2000/svg" width="31.999" height="31" viewBox="0 0 31.999 31">
  <path id="wallet" d="M16,20a2,2,0,1,1,2,2A2,2,0,0,1,16,20Zm13-7h0V4a3,3,0,0,0-3-3H5.5A5.506,5.506,0,0,0,0,6.5v20A5.506,5.506,0,0,0,5.5,32h18A5.507,5.507,0,0,0,29,26.5V25h0A7.5,7.5,0,0,0,29,13ZM5.5,3H26a1,1,0,0,1,1,1v6.184A2.966,2.966,0,0,0,26,10h0V5a1,1,0,0,0-1-1H4A1,1,0,0,0,3,5V8.943A3.5,3.5,0,0,1,5.5,3ZM25,6H4V5H25Zm0,1V8H4V7Zm0,2v1H5.5A3.46,3.46,0,0,1,4,9.65V9Zm2,17.5A3.5,3.5,0,0,1,23.5,30H5.5A3.5,3.5,0,0,1,2,26.5V10.739A5.473,5.473,0,0,0,5.5,12H26a1,1,0,0,1,1,1v2H18a5,5,0,0,0,0,10h9ZM28.277,23H18a3,3,0,0,1,0-6h9a2.062,2.062,0,0,0,1.6-.8,2.013,2.013,0,0,0,.25-.461c.009-.022.025-.039.033-.062A5.512,5.512,0,0,1,28.277,23Z" transform="translate(0 -1)" fill="#12aaeb"/>
</svg>
